<?xml version="1.0" encoding="iso-8859-1"?>
<!-- Generator: Adobe Illustrator 19.0.0, SVG Export Plug-In . SVG Version: 6.00 Build 0)  -->
<svg version="1.1" id="Capa_1" xmlns="http://www.w3.org/2000/svg" xmlns:xlink="http://www.w3.org/1999/xlink" x="0px" y="0px"
	 viewBox="0 0 512 512" style="enable-background:new 0 0 512 512;" xml:space="preserve">
<g>
	<g>
		<path d="M431.446,119.306c-3.953-1.474-8.02-2.887-12.177-4.249l88.403-89.517c5.821-5.895,5.762-15.392-0.133-21.213
			c-5.896-5.822-15.393-5.76-21.213,0.133L386.17,105.879C347.267,96.84,302.536,92,256,92s-91.267,4.84-130.17,13.879L25.673,4.46
			C19.853-1.434,10.356-1.494,4.46,4.327c-5.895,5.821-5.954,15.318-0.133,21.213l88.403,89.517
			c-4.157,1.362-8.224,2.775-12.177,4.249C28.608,138.674,0,166.266,0,197v210c0,38.726,44.042,64.083,80.554,77.694
			C133.977,504.614,199.174,512,256,512c59.59,0,130.282-8.279,185.048-31.091C444.857,479.843,512,453.653,512,407V197
			C512,166.266,483.393,138.674,431.446,119.306z M60,442.185C40.806,430.944,30,418.561,30,407v-88.477
			c9.353,4.621,19.383,8.899,30,12.833V442.185z M150,472.584c-21.528-4.09-41.415-9.456-58.966-16
			c-0.349-0.129-0.687-0.262-1.034-0.393v-115.09c18.716,5.292,38.819,9.63,60,12.96V472.584z M241,481.819
			c-21.022-0.491-41.496-2.014-61-4.501V358.023c19.653,2.113,40.056,3.597,61,4.014V481.819z M332,477.318
			c-19.504,2.488-39.978,4.01-61,4.501V362.037c20.944-0.417,41.347-1.901,61-4.014V477.318z M422,456.192
			c-0.347,0.131-0.685,0.264-1.034,0.394c-17.551,6.543-37.438,11.908-58.966,15.999V354.062c21.181-3.331,41.284-7.668,60-12.96
			V456.192z M482,407c0,11.561-10.806,23.944-30,35.186V331.357c10.617-3.934,20.647-8.213,30-12.833V407z M482,284.487
			c-51.377,29.84-134.936,47.713-226,47.713S81.378,314.327,30,284.487v-36.485C83.727,289.439,186.182,302.2,256,302.2
			c71.153,0,172.893-13.239,226-54.198V284.487z M256,272.2c-134.888,0-226-41.617-226-75.2c0-16.799,22.817-35.335,61.034-49.585
			c8.037-2.997,16.568-5.744,25.516-8.238l37.881,38.358C151.593,183.429,150,190.032,150,197c0,24.813,20.187,45,45,45
			s45-20.187,45-45s-20.187-45-45-45c-6.909,0-13.458,1.569-19.313,4.363l-24.806-25.118C183.044,125.199,218.841,122,256,122
			s72.956,3.199,105.119,9.245l-24.806,25.118C330.458,153.569,323.909,152,317,152c-24.813,0-45,20.187-45,45s20.187,45,45,45
			s45-20.187,45-45c0-6.968-1.593-13.571-4.432-19.465l37.881-38.358c8.949,2.494,17.479,5.242,25.516,8.238
			C459.184,161.665,482,180.201,482,197C482,230.588,390.88,272.2,256,272.2z M180,197c0-8.271,6.729-15,15-15s15,6.729,15,15
			s-6.729,15-15,15S180,205.271,180,197z M332,197c0,8.271-6.729,15-15,15s-15-6.729-15-15s6.729-15,15-15S332,188.729,332,197z"/>
	</g>
</g>
<g>
</g>
<g>
</g>
<g>
</g>
<g>
</g>
<g>
</g>
<g>
</g>
<g>
</g>
<g>
</g>
<g>
</g>
<g>
</g>
<g>
</g>
<g>
</g>
<g>
</g>
<g>
</g>
<g>
</g>
</svg>
