<svg width="50" height="50" viewBox="0 0 50 50" fill="none" xmlns="http://www.w3.org/2000/svg">
<g clip-path="url(#clip0)">
<path d="M43.4432 14.8972V13.6462C43.4334 11.0396 41.3094 8.92148 38.7009 8.92148C37.9812 8.92148 37.2985 9.08262 36.6871 9.3707C36.1002 7.41855 34.2857 5.9917 32.144 5.9917C30.0024 5.9917 28.1879 7.41846 27.601 9.3707C25.7767 8.51103 23.5716 8.89922 22.1468 10.4029C22.1468 10.4039 22.1468 10.4039 22.1458 10.4039C21.5409 10.9301 16.1383 15.2227 12.4376 18.1707V13.4919C12.4376 10.873 10.2997 8.6331 7.60254 8.68516C5.03799 8.73398 2.95205 10.8609 2.95205 13.4274C2.95205 30.7156 2.90185 26.7428 3.06924 30.381L0.57119 32.8791C-0.189552 33.6398 -0.190528 34.8781 0.569237 35.6399C7.78594 42.8725 5.34668 40.4165 14.3557 49.4254C15.1125 50.1822 16.3482 50.1945 17.1185 49.4264L18.5071 48.0377C19.3597 47.1842 20.4944 46.7008 21.6996 46.6773C22.2064 46.6676 22.7045 46.607 23.1898 46.4996V48.0289C23.1898 49.1051 24.0648 49.981 25.141 49.982C35.8887 49.995 28.9218 49.982 44.6366 49.982C45.7138 49.982 46.5907 49.1051 46.5907 48.0289V46.065C46.5907 44.858 47.0507 43.7153 47.8866 42.8452C49.25 41.427 50 39.5628 50 37.596V19.2801C50 15.8961 46.5432 13.6074 43.4432 14.8972ZM16.4357 45.9652L15.7375 46.6635C7.70176 38.6299 9.12598 40.0683 3.33193 34.2609L5.44521 32.1476C5.83193 31.7609 6.03994 31.2248 6.01553 30.6769C5.84238 26.8956 5.88174 29.9279 5.88174 13.4275C5.88174 12.4461 6.67861 11.6326 7.65908 11.6141C8.69258 11.597 9.50771 12.4885 9.50771 13.492V21.2324C9.50771 22.5516 11.112 23.1644 11.9756 22.3008C12.4264 21.9157 16.9217 18.3478 20.8449 15.2176V28.9015C20.8444 28.901 17.8683 25.9248 17.8683 25.9248C16.0202 24.0807 12.9273 24.0037 11.0536 25.9482C9.27529 27.7969 9.30361 30.7765 11.1181 32.5909C23.0777 44.5495 20.8114 42.3266 22.3039 43.6868C21.5802 43.807 18.8573 43.5437 16.4357 45.9652ZM47.0702 37.596C47.0702 38.802 46.6103 39.9457 45.7743 40.8148C44.411 42.2338 43.661 44.0981 43.661 46.0649V47.0522C31.6607 47.0522 34.7674 47.0638 26.1196 47.0532C26.1196 45.9585 26.1196 45.2073 26.1196 44.0648C26.1196 43.517 25.8872 42.9916 25.4829 42.6225C22.7343 40.1179 24.9427 42.2719 13.1906 30.5186C12.0852 29.4147 12.8085 27.4615 14.4328 27.4453C14.9475 27.4414 15.4426 27.6426 15.8 28C18.1146 30.3153 17.334 29.534 21.2737 33.4737C22.1944 34.3944 23.7748 33.7397 23.7748 32.4376C23.7748 31.7328 23.7748 14.8169 23.7748 13.6647C23.7748 12.6629 24.5898 11.8513 25.5873 11.8513C26.5873 11.8513 27.4008 12.6647 27.4008 13.6647V26.5166C27.4008 27.3252 28.057 27.9814 28.8656 27.9814C29.6752 27.9814 30.3305 27.3252 30.3305 26.5166C30.3305 25.5061 30.3305 18.8531 30.3305 17.8338V13.6462V10.735C30.3305 9.73496 31.1439 8.92148 32.1439 8.92148C33.1439 8.92148 33.9574 9.73496 33.9574 10.735C33.9574 27.7556 33.9253 26.6316 34.018 26.9346C34.0812 27.1522 34.2093 27.3759 34.3861 27.5527C35.3078 28.4642 36.8871 27.8227 36.8871 26.5166C36.8871 26.1339 36.8871 14.3154 36.8871 13.6647C36.8871 12.6647 37.7006 11.8513 38.7006 11.8513C39.6996 11.8513 40.5131 12.6647 40.5131 13.6647V26.5166C40.5131 27.3252 41.1693 27.9814 41.9779 27.9814C42.7875 27.9814 43.4428 27.3252 43.4428 26.5166V19.2801C43.4428 18.2801 44.2562 17.4666 45.2562 17.4666C46.2562 17.4666 47.0697 18.2801 47.0697 19.2801V37.596H47.0702Z" fill="#DE3D41"/>
<path d="M21.8418 7.27588C22.6508 7.27588 23.3066 6.62002 23.3066 5.81103V1.46729C23.3066 0.658301 22.6508 0.00244141 21.8418 0.00244141C21.0328 0.00244141 20.377 0.658301 20.377 1.46729V5.81103C20.3769 6.62002 21.0327 7.27588 21.8418 7.27588Z" fill="#DE3D41"/>
<path d="M15.237 8.61143C15.809 9.1835 16.7365 9.1835 17.3086 8.61143C17.8808 8.03936 17.8808 7.11192 17.3086 6.53985L14.2371 3.46837C13.6651 2.8963 12.7376 2.8962 12.1655 3.46837C11.5934 4.04044 11.5934 4.96788 12.1655 5.53995L15.237 8.61143Z" fill="#DE3D41"/>
</g>
<defs>
<clipPath id="clip0">
<rect width="50" height="50" fill="white"/>
</clipPath>
</defs>
</svg>
