<svg width="50" height="50" viewBox="0 0 50 50" fill="none" xmlns="http://www.w3.org/2000/svg">
<g clip-path="url(#clip0)">
<path d="M45.1698 39.7703C48.2953 35.503 50 30.3244 50 25C50 19.5521 48.2687 14.3705 45.0672 10.0827C45.4091 9.90459 45.7258 9.67383 46.0062 9.39336C47.4941 7.90479 47.4942 5.48252 46.0059 3.99326C45.2846 3.27227 44.3257 2.8752 43.3059 2.8752C42.286 2.8752 41.3271 3.27227 40.6053 3.99375C40.3221 4.27715 40.0931 4.59463 39.9176 4.93291C35.6296 1.73135 30.448 -0.000195296 25.0002 1.65212e-08C24.9998 1.65212e-08 24.9998 1.65212e-08 24.9994 1.65212e-08C19.5517 1.65212e-08 14.3701 1.73154 10.0823 4.9332C9.90674 4.59473 9.67764 4.27705 9.39404 3.99336C8.67275 3.27236 7.71396 2.87529 6.69414 2.87529C5.67432 2.87529 4.71543 3.27236 3.99365 3.99385C2.50557 5.48262 2.50566 7.90498 3.99404 9.39375C4.27451 9.67412 4.59111 9.90469 4.93291 10.0829C1.73154 14.3706 0.000195313 19.5521 0 25C0.000195313 30.3244 1.70479 35.503 4.83008 39.7702L1.11846 43.4817C-0.37041 44.9707 -0.370312 47.3933 1.11846 48.8818C1.86279 49.6262 2.84033 49.9983 3.81816 49.9983C4.796 49.9982 5.77393 49.6261 6.51836 48.8817L10.2308 45.169C13.2242 47.3622 16.6837 48.8771 20.3539 49.5677C20.7812 49.8475 21.3006 50.0001 21.8618 50.0001H28.1378C28.6989 50.0001 29.2184 49.8476 29.6456 49.5678C33.3158 48.8771 36.7754 47.3623 39.7688 45.1691L43.4813 48.8817C44.2258 49.6262 45.2035 49.9983 46.1813 49.9983C47.159 49.9983 48.1368 49.6262 48.8812 48.8819C50.3698 47.3933 50.3698 44.9708 48.8812 43.4818L45.1698 39.7703ZM42.677 6.06523C42.8449 5.89736 43.0683 5.80488 43.3058 5.80488C43.5434 5.80488 43.7667 5.89736 43.9341 6.06475C44.2807 6.41152 44.2808 6.97559 43.9346 7.32187C43.7666 7.48984 43.5433 7.58223 43.3059 7.58223C43.0699 7.58223 42.848 7.49072 42.6808 7.3251C42.6797 7.32412 42.6787 7.32305 42.6777 7.32207C42.6767 7.321 42.6757 7.32002 42.6746 7.31904C42.3311 6.97227 42.332 6.41055 42.677 6.06523ZM6.06533 6.06523C6.2333 5.89736 6.45664 5.80488 6.69414 5.80488C6.93164 5.80488 7.15488 5.89727 7.32246 6.06484C7.66904 6.41152 7.66904 6.97549 7.32275 7.32187C7.15479 7.48984 6.93164 7.58223 6.69414 7.58223C6.45664 7.58223 6.2334 7.48984 6.06572 7.32217C5.71924 6.97559 5.71924 6.41152 6.06533 6.06523ZM9.39355 9.39414C9.39385 9.39395 9.39404 9.39375 9.39434 9.39346C9.39453 9.39326 9.39473 9.39307 9.39492 9.39287C13.5633 5.2248 19.1053 2.92949 25.0002 2.92969C30.8935 2.92949 36.434 5.22373 40.6021 9.38984C40.6034 9.39111 40.6045 9.39238 40.6058 9.39365C40.6071 9.39502 40.6085 9.39619 40.6098 9.39746C44.776 13.5656 47.0703 19.1064 47.0703 25C47.0703 30.1932 45.2829 35.0074 42.2449 38.8067C42.2257 38.8241 40.7365 40.605 38.8 42.2519C36.418 44.1562 33.6179 45.5811 30.5302 46.3724L30.0236 44.8534C30.004 44.7944 29.982 44.7365 29.959 44.6788C38.7592 42.4603 45.293 34.4792 45.293 24.9997C45.293 13.8101 36.1896 4.70664 25 4.70664C13.8104 4.70664 4.70693 13.8102 4.70693 24.9998C4.70693 34.4791 11.2405 42.4603 20.0407 44.6789C20.0178 44.7365 19.9958 44.7944 19.9762 44.8532L19.4696 46.3725C16.3819 45.5812 12.9114 43.74 10.837 41.9555C9.8207 41.1068 8.88486 40.169 8.03965 39.1553C4.68057 35.7583 2.92988 30.1934 2.92969 25C2.92988 19.105 5.22549 13.5627 9.39355 9.39414ZM24.2154 36.087C24.1619 36.087 24.1113 36.0364 24.1113 35.983V32.8448C24.1113 32.7912 24.1619 32.7405 24.2154 32.7405H25.7845C25.838 32.7405 25.8886 32.7913 25.8886 32.8448V35.983C25.8886 36.0364 25.838 36.087 25.7845 36.087H24.2154ZM26.4648 42.3008V38.9389C27.811 38.629 28.8184 37.4219 28.8184 35.983V32.8448C28.8184 31.1719 27.4574 29.8108 25.7846 29.8108H24.2155C22.5427 29.8108 21.1817 31.172 21.1817 32.8448V35.983C21.1817 37.4218 22.1891 38.6291 23.5354 38.9389V42.3008C14.6442 41.5544 7.63682 34.0806 7.63682 24.9998C7.63682 15.4256 15.426 7.63643 25.0002 7.63643C34.5744 7.63643 42.3635 15.4256 42.3635 24.9998C42.3634 34.0806 35.3561 41.5545 26.4648 42.3008ZM22.7556 45.7797C22.8283 45.5613 23.2008 45.2929 23.431 45.2929H26.5689C26.7991 45.2929 27.1716 45.5612 27.2443 45.7798L27.6746 47.0703H22.3252L22.7556 45.7797ZM4.44697 46.81C4.10039 47.1566 3.53652 47.1566 3.19014 46.8102C2.84365 46.4637 2.84375 45.8999 3.19014 45.5533L6.70566 42.0379C7.11055 42.4724 7.53047 42.8905 7.96328 43.2935L4.44697 46.81ZM46.81 46.8102C46.4634 47.1565 45.8997 47.1566 45.5531 46.8101L42.0367 43.2936C42.4695 42.8906 42.8895 42.4725 43.2944 42.038L46.8098 45.5532C47.1563 45.8999 47.1563 46.4638 46.81 46.8102Z" fill="#F0E259"/>
</g>
<defs>
<clipPath id="clip0">
<rect width="50" height="50" fill="white"/>
</clipPath>
</defs>
</svg>
