<svg width="50" height="50" viewBox="0 0 50 50" fill="none" xmlns="http://www.w3.org/2000/svg">
<path d="M48.3255 22.1604C49.4382 21.2925 50 20.3171 50 19.2383C50 17.3457 48.2679 15.764 44.8516 14.5371C42.3417 13.6357 38.9851 12.9272 35.0869 12.4727C34.2643 10.3289 30.509 9.23271 26.4648 9.02227V2.92969H27.9297C28.7387 2.92969 29.3945 2.27383 29.3945 1.46484C29.3945 0.655859 28.7387 0 27.9297 0H22.0703C21.2613 0 20.6055 0.655859 20.6055 1.46484C20.6055 2.27383 21.2613 2.92969 22.0703 2.92969H23.5352V9.02227C19.491 9.23262 15.7357 10.3289 14.9131 12.4727C11.0149 12.9272 7.6583 13.6357 5.14844 14.5371C1.73213 15.764 0 17.3457 0 19.2383C0 20.3171 0.561816 21.2925 1.67461 22.1604C0.562109 23.0305 0 24.013 0 25.0977C0 29.681 10.2271 31.3141 14.7906 31.8523C14.2595 35.2564 18.2922 37.8338 23.5352 38.2267V48.5352C23.5352 49.3441 24.191 50 25 50C25.809 50 26.4648 49.3441 26.4648 48.5352V38.2267C31.7955 37.8271 35.7328 35.2072 35.2094 31.8523C39.7717 31.3143 50 29.6812 50 25.0977C50 24.013 49.4379 23.0305 48.3255 22.1604ZM24.8476 11.9151C24.8977 11.9203 24.9485 11.9231 25 11.9231C25.0515 11.9231 25.1023 11.9203 25.1524 11.9151C29.1097 11.9381 31.5122 12.8443 32.1912 13.3789C31.5034 13.9204 29.0486 14.8633 24.9999 14.8633C20.9512 14.8633 18.4964 13.9204 17.8086 13.3789C18.4878 12.8443 20.8902 11.9381 24.8476 11.9151ZM25 35.3516C20.4191 35.3516 17.2611 33.4712 17.7273 32.1405C20.0529 32.3255 22.499 32.4414 25 32.4414C27.501 32.4414 29.9471 32.3255 32.2727 32.1405C32.739 33.4714 29.5813 35.3516 25 35.3516ZM45.937 26.1148C41.3173 28.8246 30.5096 29.5117 25 29.5117C19.575 29.5117 8.70381 28.8368 4.06299 26.1148C3.13135 25.5684 2.92969 25.1676 2.92969 25.0977C2.92969 24.9889 3.25225 24.4446 4.65098 23.757C5.62471 24.1366 6.74854 24.4857 8.0249 24.803C12.5895 25.9377 18.618 26.582 25 26.582C31.3821 26.582 37.4105 25.9377 41.975 24.803C43.2514 24.4857 44.3753 24.1366 45.349 23.757C46.7477 24.4446 47.0703 24.9889 47.0703 25.0977C47.0703 25.1676 46.8687 25.5684 45.937 26.1148ZM45.937 20.2555C41.4396 22.8935 30.9197 23.6523 25 23.6523C19.4932 23.6523 8.67959 22.9632 4.06299 20.2555C3.13135 19.709 2.92969 19.3082 2.92969 19.2383C2.92969 19.2304 3.16885 18.3609 6.13857 17.2943C8.48467 16.4518 11.8296 15.7644 15.6248 15.3404C17.3095 17.0072 21.1677 17.793 25 17.793C28.8323 17.793 32.6905 17.0072 34.3752 15.3404C38.1705 15.7644 41.5153 16.4518 43.8614 17.2943C46.8312 18.3609 47.0703 19.2304 47.0703 19.2383C47.0703 19.3082 46.8687 19.709 45.937 20.2555Z" fill="#5E457F"/>
</svg>
