<svg width="50" height="50" viewBox="0 0 50 50" fill="none" xmlns="http://www.w3.org/2000/svg">
<g clip-path="url(#clip0)">
<path d="M37.0804 12.9241C35.8675 9.3582 33.5733 6.16728 30.5585 3.8752C27.2241 1.34004 23.2421 0 19.043 0C8.54268 0 0 8.54268 0 19.043C0 23.2421 1.34004 27.2241 3.8752 30.5586C6.16738 33.5733 9.3582 35.8675 12.9241 37.0805C15.4797 44.5859 22.5979 50 30.957 50C41.4573 50 50 41.4573 50 30.957C50 22.5979 44.5859 15.4797 37.0804 12.9241ZM2.92969 19.043C2.92969 10.1581 10.1581 2.92969 19.043 2.92969C25.2808 2.92969 30.9414 6.59434 33.584 12.0961C32.725 11.9771 31.8482 11.9141 30.957 11.9141C20.4567 11.9141 11.9141 20.4567 11.9141 30.957C11.9141 31.8483 11.9771 32.725 12.0961 33.5841C6.59434 30.9414 2.92969 25.2808 2.92969 19.043ZM30.957 29.4922C30.148 29.4922 29.4922 30.148 29.4922 30.957V35.0996C27.7872 34.4949 26.5625 32.8667 26.5625 30.957C26.5625 28.5339 28.5339 26.5625 30.957 26.5625C33.3802 26.5625 35.3516 28.5339 35.3516 30.957C35.3516 32.8667 34.1269 34.4949 32.4219 35.0996V30.957C32.4219 30.148 31.766 29.4922 30.957 29.4922ZM32.4219 47.003V38.1339C35.7609 37.4534 38.2812 34.4941 38.2812 30.957C38.2812 26.9185 34.9956 23.6328 30.957 23.6328C26.9185 23.6328 23.6328 26.9185 23.6328 30.957C23.6328 34.494 26.1531 37.4533 29.4922 38.1339V47.003C21.2913 46.2604 14.8438 39.348 14.8438 30.957C14.8438 22.0722 22.0722 14.8438 30.957 14.8438C39.8419 14.8438 47.0703 22.0722 47.0703 30.957C47.0703 39.348 40.6228 46.2604 32.4219 47.003Z" fill="#AB64AD"/>
</g>
<defs>
<clipPath id="clip0">
<rect width="50" height="50" fill="white"/>
</clipPath>
</defs>
</svg>
