<svg width="50" height="50" viewBox="0 0 50 50" fill="none" xmlns="http://www.w3.org/2000/svg">
<g clip-path="url(#clip0)">
<path d="M26.6426 2.87517C25.807 2.72682 24.9462 2.84695 24.1831 3.21841C23.1984 2.60478 21.9242 2.72758 21.0749 3.51817L18.3446 6.07452V5.8518C18.3446 3.55135 16.4797 1.68643 14.1789 1.68643C12.7987 1.68643 11.6797 2.80538 11.6797 4.18558V12.3455L9.64016 14.5574C9.06086 15.1829 8.74546 16.0078 8.75881 16.8602C8.74241 19.7643 8.95674 22.6658 9.40028 25.536C9.4182 25.6016 9.44452 25.6646 9.47846 25.7237L8.11886 29.5485C7.60172 30.9721 8.12229 32.5651 9.38006 33.4091L9.85602 33.7325C9.37015 35.1486 9.88653 36.7149 11.1187 37.5649L24.6079 46.8125C24.8352 46.9681 24.9706 47.2255 24.9706 47.5005C24.9706 48.8811 26.0896 50 27.4698 50H39.5776C40.3377 50.0019 41.057 49.6553 41.5287 49.0596C42.01 48.4539 42.1847 47.6599 42.002 46.9082L40.7858 42.4095C40.3579 40.4436 40.2321 38.4238 40.4124 36.4201C41.0989 27.7133 35.262 21.4237 33.7815 20.3307C31.0581 18.3231 29.0269 16.2301 28.207 14.5879C26.9782 12.1239 27.8065 10.4382 28.607 8.80859C29.2786 7.44136 29.9735 6.02837 28.9876 4.54635C28.4667 3.69284 27.6196 3.08913 26.6426 2.87517ZM14.1789 3.35265C15.5595 3.35265 16.6784 4.47161 16.6784 5.8518V7.63472L13.346 10.754V4.18558C13.346 3.96476 13.4337 3.75272 13.59 3.59673C13.746 3.44037 13.9581 3.35265 14.1789 3.35265ZM10.425 16.8377C10.4182 16.4117 10.5761 15.9994 10.8655 15.687L13.0641 13.2985C13.0843 13.2813 13.103 13.2634 13.121 13.2443L18.0132 8.66634C18.0605 8.63049 18.1036 8.58968 18.1421 8.54468L22.2346 4.71225C22.5607 4.39495 23.0805 4.39495 23.4066 4.71225L23.4634 4.65543C23.4836 4.67907 23.5054 4.70081 23.5283 4.72141L23.4756 4.78891C24.3806 5.76942 24.3555 7.28767 23.4192 8.23805L20.1424 11.384L15.5286 15.5395C15.2288 15.8587 15.0713 16.2854 15.0911 16.7225C13.5409 16.9242 12.2339 17.9772 11.7072 19.4493L10.6615 22.3905C10.4941 20.3425 10.4407 18.0237 10.425 16.8377ZM16.7501 16.6824L19.1577 14.5162C19.1261 15.2393 19.1524 15.9639 19.2371 16.6824H16.7501ZM9.68593 30.1167L13.2785 20.0076C13.6381 19.0084 14.5881 18.3437 15.6502 18.3487H22.7995C22.9722 18.3498 23.1408 18.404 23.2815 18.5039L27.5941 21.5598C27.7627 21.6765 27.8649 21.8676 27.8679 22.0728C27.8694 22.1899 27.8389 22.305 27.7798 22.4061C27.7505 22.4545 27.7123 22.5026 27.6772 22.5503L26.3241 21.5823C25.6201 21.0766 24.775 20.8051 23.9081 20.8059H17.3515C15.5877 20.8085 14.0168 21.9221 13.4299 23.5857L10.4307 32.1086L10.3224 32.0354C9.69241 31.6197 9.42926 30.8265 9.68593 30.1167ZM27.1151 8.08474C26.2734 9.79597 25.122 12.1403 26.72 15.3431C27.9972 17.9032 31.0749 20.4142 32.796 21.6811C33.9024 22.4953 39.3843 28.3105 38.7546 36.2992C38.5601 38.4822 38.7005 40.6823 39.1711 42.8226L40.3873 47.3216C40.4441 47.5684 40.3854 47.8277 40.2279 48.0264C40.0704 48.2247 39.8308 48.3407 39.5776 48.3414H27.4656C27.0056 48.3414 26.6326 47.9681 26.6326 47.5081C26.6338 46.684 26.2284 45.9125 25.5495 45.4453L12.0611 36.1977C11.4395 35.7698 11.1817 34.9785 11.4322 34.2664L15.0004 24.1356C15.3528 23.1395 16.2932 22.4725 17.35 22.4694H23.9066C24.4264 22.469 24.9332 22.6319 25.3554 22.9351L29.202 25.6886C29.4724 25.8854 29.5479 26.2553 29.377 26.5425C29.0277 27.1283 28.4533 27.5443 27.7886 27.6946C27.1235 27.8445 26.4259 27.7148 25.8592 27.3357L24.193 26.2236C23.7834 25.9479 23.3006 25.8011 22.8067 25.8018H20.2408C19.1562 25.7954 18.1932 26.4952 17.8649 27.5291C17.8157 27.6847 17.7455 27.878 17.6666 28.0954C17.0667 29.7533 15.667 33.6326 18.8427 34.9064C19.1215 35.0303 19.4457 34.9918 19.6878 34.8065C19.93 34.6211 20.0513 34.3183 20.0044 34.017C19.9575 33.7154 19.7496 33.464 19.4628 33.3607C18.0655 32.8001 18.3603 31.0763 19.2336 28.6629C19.3217 28.4196 19.4003 28.2056 19.4537 28.0321C19.5646 27.6923 19.8835 27.4639 20.2408 27.4681H22.8059C22.9696 27.4681 23.1293 27.5169 23.2651 27.608L24.9313 28.7213C25.8779 29.3532 27.0422 29.5694 28.1524 29.3193C29.2626 29.0691 30.2218 28.3742 30.8056 27.3975C31.4166 26.3648 31.1405 25.0364 30.1684 24.3332L29.0296 23.514C29.0902 23.4308 29.1562 23.3477 29.2077 23.2642C29.8263 22.2322 29.5433 20.8981 28.5597 20.2059L24.2483 17.145C23.8246 16.8453 23.3185 16.6836 22.7995 16.6824H20.9155C20.7423 15.3922 20.7843 14.0818 21.039 12.805L24.5889 9.42947C25.8722 8.14004 26.1704 6.16681 25.3253 4.55551C26.2086 4.27749 27.1643 4.66572 27.604 5.48034C28.017 6.10198 27.7855 6.72019 27.1151 8.08474Z" fill="#5A94BE"/>
<path d="M23.5733 35.0113C23.2907 34.9171 22.9791 34.9807 22.756 35.1783C22.5329 35.3758 22.4322 35.6775 22.4917 35.9696C22.5516 36.2618 22.7625 36.4998 23.0451 36.5943C24.968 37.2389 29.9602 39.5511 29.9602 42.4686C29.9602 42.9286 30.3332 43.3016 30.7931 43.3016C31.2534 43.3016 31.6264 42.9286 31.6264 42.4686C31.6237 37.7522 23.9024 35.1188 23.5733 35.0113Z" fill="#5A94BE"/>
<path d="M29.2013 31.9622C29.0209 31.725 28.728 31.6022 28.4328 31.6399C28.1372 31.6777 27.8844 31.8699 27.7696 32.1445C27.6544 32.4191 27.6945 32.7341 27.8748 32.9709C29.146 34.6371 31.2607 36.6317 34.1156 36.6317C34.576 36.6317 34.9489 36.2587 34.9489 35.7984C34.9489 35.3385 34.576 34.9655 34.1156 34.9655C31.943 34.9655 30.2466 33.3317 29.2013 31.9622Z" fill="#5A94BE"/>
<path d="M29.771 0.279165L28.977 1.11247C28.76 1.32565 28.6764 1.64029 28.7592 1.9328C28.842 2.2257 29.078 2.45033 29.3744 2.51821C29.6711 2.58648 29.9811 2.4877 30.1832 2.2604L30.9773 1.4271C31.1943 1.21391 31.2778 0.899279 31.195 0.606384C31.1123 0.31387 30.8762 0.0892408 30.5799 0.0213564C30.2832 -0.0469096 29.9731 0.0518663 29.771 0.279165Z" fill="#5A94BE"/>
<path d="M33.7147 4.0189C33.6553 3.80609 33.5134 3.6257 33.3204 3.51739C33.1278 3.40908 32.8998 3.38162 32.6869 3.4415L31.6038 3.7466C31.1996 3.85643 30.9395 4.24925 30.9967 4.66457C31.0539 5.0795 31.4105 5.38727 31.8296 5.38384C31.9063 5.38384 31.9825 5.37316 32.0562 5.35218L33.1393 5.04785C33.3521 4.98797 33.5325 4.84572 33.6404 4.65274C33.7483 4.45977 33.775 4.23171 33.7147 4.0189Z" fill="#5A94BE"/>
<path d="M31.3937 7.40742C30.9506 7.28309 30.4906 7.54128 30.3663 7.98444C30.2416 8.42759 30.5002 8.88753 30.9429 9.01186L32.026 9.31696C32.1 9.33755 32.1763 9.34823 32.253 9.34785C32.669 9.34747 33.0214 9.04008 33.0779 8.62781C33.1343 8.21517 32.8777 7.82464 32.4768 7.71214L31.3937 7.40742Z" fill="#5A94BE"/>
</g>
<defs>
<clipPath id="clip0">
<rect width="50" height="50" fill="white"/>
</clipPath>
</defs>
</svg>
