<svg width="50" height="50" viewBox="0 0 50 50" fill="none" xmlns="http://www.w3.org/2000/svg">
<g clip-path="url(#clip0)">
<path d="M42.1331 11.651C41.7471 11.5071 41.3499 11.3691 40.944 11.2361L49.5771 2.49421C50.1455 1.91853 50.1398 0.991085 49.5641 0.422628C48.9883 -0.145927 48.0609 -0.139872 47.4925 0.435616L37.7116 10.3398C33.9125 9.4571 29.5443 8.98445 24.9997 8.98445C20.4552 8.98445 16.0869 9.4571 12.2878 10.3398L2.50685 0.435616C1.93849 -0.13997 1.01105 -0.145829 0.435271 0.422628C-0.140413 0.991085 -0.146175 1.91853 0.422282 2.49421L9.05539 11.2361C8.64943 11.3691 8.25226 11.5071 7.86623 11.651C2.79347 13.5425 -0.000276375 16.237 -0.000276375 19.2384V39.7462C-0.000276375 43.528 4.3007 46.0043 7.86633 47.3335C13.0834 49.2788 19.4503 50.0001 24.9997 50.0001C30.8191 50.0001 37.7226 49.1916 43.0708 46.9639C43.4428 46.8597 49.9997 44.3021 49.9997 39.7462V19.2384C49.9997 16.237 47.2061 13.5425 42.1331 11.651ZM5.8591 43.1822C3.98468 42.0845 2.92941 40.8752 2.92941 39.7462V31.1058C3.84279 31.5571 4.82228 31.9749 5.8591 32.3591V43.1822ZM14.6482 46.1509C12.5458 45.7514 10.6037 45.2274 8.88976 44.5884C8.85568 44.5758 8.82267 44.5628 8.78879 44.55V33.3107C10.6165 33.8275 12.5797 34.2512 14.6482 34.5763V46.1509ZM23.5349 47.0527C21.482 47.0048 19.4825 46.856 17.5779 46.6132V34.9633C19.4971 35.1696 21.4896 35.3145 23.5349 35.3553V47.0527ZM32.4216 46.6132C30.5169 46.8561 28.5175 47.0048 26.4646 47.0527V35.3553C28.5099 35.3145 30.5024 35.1696 32.4216 34.9633V46.6132ZM41.2107 44.5501C41.1768 44.5629 41.1438 44.5759 41.1097 44.5886C39.3957 45.2275 37.4536 45.7514 35.3513 46.151V34.5764C37.4198 34.2512 39.3829 33.8276 41.2107 33.3108V44.5501ZM47.07 39.7462C47.07 40.8752 46.0148 42.0845 44.1404 43.1823V32.3592C45.1772 31.975 46.1567 31.5571 47.07 31.1059V39.7462ZM47.07 27.782C42.0528 30.6961 33.8927 32.4415 24.9997 32.4415C16.1068 32.4415 7.94679 30.6961 2.92941 27.782V24.219C8.17619 28.2656 18.1816 29.5118 24.9997 29.5118C31.9483 29.5118 41.8838 28.2189 47.07 24.219V27.782ZM24.9997 26.5821C11.8271 26.5821 2.92941 22.5179 2.92941 19.2384C2.92941 17.5978 5.15763 15.7877 8.88976 14.3961C9.67463 14.1034 10.5077 13.8351 11.3816 13.5916L15.0809 17.3375C14.8037 17.9131 14.6482 18.5579 14.6482 19.2384C14.6482 21.6615 16.6196 23.6329 19.0427 23.6329C21.4658 23.6329 23.4372 21.6615 23.4372 19.2384C23.4372 16.8152 21.4658 14.8438 19.0427 14.8438C18.368 14.8438 17.7284 14.997 17.1567 15.2699L14.7342 12.817C17.8751 12.2265 21.3709 11.9141 24.9997 11.9141C28.6285 11.9141 32.1243 12.2265 35.2653 12.817L32.8428 15.2699C32.271 14.997 31.6315 14.8438 30.9568 14.8438C28.5336 14.8438 26.5622 16.8152 26.5622 19.2384C26.5622 21.6615 28.5336 23.6329 30.9568 23.6329C33.3799 23.6329 35.3513 21.6615 35.3513 19.2384C35.3513 18.5579 35.1957 17.9131 34.9185 17.3375L38.6178 13.5916C39.4917 13.8351 40.3247 14.1035 41.1096 14.3961C44.8419 15.7877 47.07 17.5978 47.07 19.2384C47.07 22.5184 38.1716 26.5821 24.9997 26.5821ZM17.5779 19.2384C17.5779 18.4306 18.235 17.7735 19.0427 17.7735C19.8504 17.7735 20.5075 18.4306 20.5075 19.2384C20.5075 20.0461 19.8504 20.7032 19.0427 20.7032C18.235 20.7032 17.5779 20.0461 17.5779 19.2384ZM32.4216 19.2384C32.4216 20.0461 31.7645 20.7032 30.9568 20.7032C30.149 20.7032 29.4919 20.0461 29.4919 19.2384C29.4919 18.4306 30.149 17.7735 30.9568 17.7735C31.7645 17.7735 32.4216 18.4306 32.4216 19.2384Z" fill="#9C77B9"/>
</g>
<defs>
<clipPath id="clip0">
<rect width="50" height="50" fill="white"/>
</clipPath>
</defs>
</svg>
